<svg id="Capa_1" data-name="Capa 1" xmlns="http://www.w3.org/2000/svg" viewBox="0 0 36.45 9.61"><defs><style>.cls-1{fill:#272727;}</style></defs><path class="cls-1" d="M2,9.6V1.26H0V0H5.3V1.26h-2V9.6Z"/><path class="cls-1" d="M5.44,9.6,9.19,0H10L13.65,9.6H12.33l-.78-2.14h-4L6.73,9.6ZM8,6.23h3.21L9.59,1.91Z"/><path class="cls-1" d="M15.28,9.6V0h.81L21.7,6.94V0H23V9.6h-.83l-5.6-7v7Z"/><path class="cls-1" d="M25.34,9.61V0h1.25V9.61Z"/><path class="cls-1" d="M28.24,9.6,32,0h.82L36.45,9.6H35.13l-.78-2.14h-4L29.53,9.6Zm2.51-3.37H34L32.39,1.91Z"/></svg>